<svg width="136" height="42" viewBox="0 0 136 42" fill="none" xmlns="http://www.w3.org/2000/svg">
<path d="M19.921 28.578L3.66992 21L0.501591 27.7945L16.7527 35.3725L19.921 28.578Z" fill="#295BFF"/>
<path d="M16.7511 6.62756L0.5 14.2056L3.66833 21.0001L19.9194 13.4221L16.7511 6.62756Z" fill="#295BFF"/>
<path d="M32.7121 21.1884C32.7121 19.2767 33.1525 17.5618 34.0334 16.0437C34.933 14.5255 36.1419 13.3448 37.66 12.5014C39.1969 11.6392 40.8743 11.2082 42.6923 11.2082C44.7727 11.2082 46.6188 11.7236 48.2307 12.7544C49.8613 13.7665 51.042 15.2096 51.773 17.0839H47.9214C47.4154 16.053 46.7126 15.2846 45.8129 14.7786C44.9133 14.2725 43.8731 14.0195 42.6923 14.0195C41.3991 14.0195 40.2465 14.31 39.2344 14.891C38.2223 15.472 37.4258 16.3061 36.8447 17.3931C36.2825 18.4802 36.0013 19.7453 36.0013 21.1884C36.0013 22.6316 36.2825 23.8967 36.8447 24.9837C37.4258 26.0708 38.2223 26.9142 39.2344 27.5139C40.2465 28.0949 41.3991 28.3855 42.6923 28.3855C43.8731 28.3855 44.9133 28.1324 45.8129 27.6264C46.7126 27.1203 47.4154 26.3519 47.9214 25.3211H51.773C51.042 27.1953 49.8613 28.6385 48.2307 29.6506C46.6188 30.6626 44.7727 31.1687 42.6923 31.1687C40.8556 31.1687 39.1782 30.747 37.66 29.9036C36.1419 29.0414 34.933 27.8513 34.0334 26.3332C33.1525 24.815 32.7121 23.1001 32.7121 21.1884ZM57.1549 13.4572C56.5739 13.4572 56.0866 13.2604 55.693 12.8668C55.2994 12.4733 55.1027 11.986 55.1027 11.4049C55.1027 10.8239 55.2994 10.3366 55.693 9.94305C56.0866 9.54946 56.5739 9.35267 57.1549 9.35267C57.7172 9.35267 58.1951 9.54946 58.5887 9.94305C58.9823 10.3366 59.1791 10.8239 59.1791 11.4049C59.1791 11.986 58.9823 12.4733 58.5887 12.8668C58.1951 13.2604 57.7172 13.4572 57.1549 13.4572ZM58.7293 15.5095V31H55.5244V15.5095H58.7293ZM81.6887 15.2565C82.907 15.2565 83.994 15.5095 84.9499 16.0155C85.9245 16.5216 86.6835 17.2713 87.2271 18.2646C87.7893 19.258 88.0705 20.4575 88.0705 21.8631V31H84.8937V22.3411C84.8937 20.9541 84.5469 19.8952 83.8535 19.1642C83.16 18.4146 82.2135 18.0397 81.014 18.0397C79.8145 18.0397 78.8586 18.4146 78.1464 19.1642C77.453 19.8952 77.1062 20.9541 77.1062 22.3411V31H73.9294V22.3411C73.9294 20.9541 73.5827 19.8952 72.8892 19.1642C72.1958 18.4146 71.2493 18.0397 70.0498 18.0397C68.8503 18.0397 67.8944 18.4146 67.1822 19.1642C66.4887 19.8952 66.142 20.9541 66.142 22.3411V31H62.9371V15.5095H66.142V17.2807C66.6668 16.6434 67.3321 16.1467 68.1381 15.7906C68.944 15.4345 69.8061 15.2565 70.7245 15.2565C71.9615 15.2565 73.0673 15.5189 74.0419 16.0437C75.0165 16.5684 75.7662 17.3275 76.2909 18.3208C76.7595 17.3837 77.4905 16.6434 78.4838 16.0999C79.4771 15.5376 80.5454 15.2565 81.6887 15.2565ZM95.3536 17.7867C95.8971 17.0745 96.6374 16.4747 97.5746 15.9874C98.5117 15.5001 99.5706 15.2565 100.751 15.2565C102.101 15.2565 103.328 15.5938 104.434 16.2686C105.559 16.9245 106.44 17.8523 107.077 19.0518C107.714 20.2513 108.033 21.6289 108.033 23.1845C108.033 24.7401 107.714 26.1364 107.077 27.3734C106.44 28.5916 105.559 29.5475 104.434 30.2409C103.328 30.9157 102.101 31.253 100.751 31.253C99.5706 31.253 98.521 31.0187 97.6027 30.5502C96.6843 30.0629 95.9346 29.4631 95.3536 28.7509V38.3657H92.1487V15.5095H95.3536V17.7867ZM104.772 23.1845C104.772 22.1162 104.547 21.1978 104.097 20.4294C103.666 19.6422 103.085 19.0518 102.354 18.6582C101.642 18.2459 100.873 18.0397 100.049 18.0397C99.2426 18.0397 98.4742 18.2459 97.7432 18.6582C97.031 19.0705 96.45 19.6703 96.0002 20.4575C95.5691 21.2446 95.3536 22.1724 95.3536 23.2407C95.3536 24.309 95.5691 25.2461 96.0002 26.052C96.45 26.8392 97.031 27.439 97.7432 27.8513C98.4742 28.2636 99.2426 28.4698 100.049 28.4698C100.873 28.4698 101.642 28.2636 102.354 27.8513C103.085 27.4202 103.666 26.8017 104.097 25.9958C104.547 25.1899 104.772 24.2528 104.772 23.1845ZM114.407 10.1961V31H111.202V10.1961H114.407ZM117.547 23.1845C117.547 21.6289 117.865 20.2513 118.502 19.0518C119.158 17.8523 120.039 16.9245 121.145 16.2686C122.27 15.5938 123.507 15.2565 124.856 15.2565C126.074 15.2565 127.133 15.5001 128.033 15.9874C128.951 16.456 129.682 17.0464 130.226 17.7586V15.5095H133.459V31H130.226V28.6947C129.682 29.4256 128.942 30.0348 128.005 30.5221C127.068 31.0094 125.999 31.253 124.8 31.253C123.469 31.253 122.251 30.9157 121.145 30.2409C120.039 29.5475 119.158 28.5916 118.502 27.3734C117.865 26.1364 117.547 24.7401 117.547 23.1845ZM130.226 23.2407C130.226 22.1724 130.001 21.2446 129.551 20.4575C129.12 19.6703 128.548 19.0705 127.836 18.6582C127.124 18.2459 126.355 18.0397 125.531 18.0397C124.706 18.0397 123.938 18.2459 123.225 18.6582C122.513 19.0518 121.932 19.6422 121.482 20.4294C121.051 21.1978 120.836 22.1162 120.836 23.1845C120.836 24.2528 121.051 25.1899 121.482 25.9958C121.932 26.8017 122.513 27.4202 123.225 27.8513C123.956 28.2636 124.725 28.4698 125.531 28.4698C126.355 28.4698 127.124 28.2636 127.836 27.8513C128.548 27.439 129.12 26.8392 129.551 26.052C130.001 25.2461 130.226 24.309 130.226 23.2407Z" fill="#295BFF"/>
</svg>
