<svg width="65" height="65" viewBox="0 0 65 65" fill="none" xmlns="http://www.w3.org/2000/svg">
<rect width="65" height="65" rx="32.5" fill="#D9DDFF"/>
<path d="M38.016 26.8777C37.8231 26.6837 37.5612 26.5752 37.2883 26.5752H28.9246C28.6518 26.5752 28.3899 26.6837 28.197 26.8777C28.003 27.0705 27.8945 27.3324 27.8945 27.6053V36.771C27.8945 37.0439 28.003 37.3058 28.197 37.4986C28.3899 37.6926 28.6518 37.8011 28.9246 37.8011H37.2883C37.5612 37.8011 37.8231 37.6926 38.016 37.4986C38.2099 37.3058 38.3184 37.0439 38.3184 36.771V27.6053C38.3184 27.3324 38.2099 27.0705 38.016 26.8777ZM37.2357 35.7365C37.2357 35.9655 37.1447 36.1847 36.9837 36.3458C36.8226 36.508 36.6034 36.5978 36.3744 36.5989H29.8386C29.6107 36.5978 29.3915 36.508 29.2293 36.3458C29.0682 36.1847 28.9772 35.9655 28.9772 35.7365V28.6398C28.9772 28.4107 29.0682 28.1916 29.2293 28.0305C29.3904 27.8694 29.6107 27.7773 29.8386 27.7773H36.3744C36.6034 27.7773 36.8226 27.8683 36.9837 28.0305C37.1447 28.1916 37.2357 28.4107 37.2357 28.6398V35.7365Z" fill="#000C3A"/>
<path d="M36.5842 28.4292C36.5294 28.3733 36.4537 28.3415 36.3748 28.3415L29.8391 28.3394C29.7602 28.3394 29.6846 28.3711 29.6287 28.427C29.5728 28.4829 29.5421 28.5574 29.541 28.6363V35.7363C29.5421 35.8152 29.5728 35.8909 29.6287 35.9468C29.6846 36.0026 29.7602 36.0333 29.8391 36.0333H36.3748C36.4537 36.0333 36.5294 36.0026 36.5852 35.9468C36.64 35.8909 36.6718 35.8152 36.6718 35.7363V28.6396C36.6718 28.5596 36.64 28.4851 36.5842 28.4292ZM33.1344 33.9753C33.1267 34.0192 33.1103 34.0608 33.084 34.097C33.0577 34.1331 33.0237 34.1616 32.9831 34.1824C32.9437 34.2022 32.8998 34.2131 32.856 34.2131H32.8538C32.7946 34.2131 32.7366 34.1945 32.6883 34.1594C32.6401 34.1244 32.604 34.075 32.5853 34.0181L32.273 33.0515H31.1541L30.8232 34.0213C30.8045 34.0772 30.7695 34.1265 30.7213 34.1605C30.673 34.1945 30.6161 34.2131 30.5569 34.2131C30.512 34.2131 30.4681 34.2033 30.4276 34.1824C30.3881 34.1616 30.3541 34.132 30.3278 34.0959C30.3015 34.0597 30.284 34.017 30.2774 33.972C30.272 33.9282 30.2752 33.8833 30.2895 33.8405L31.4665 30.3831C31.4665 30.3831 31.4697 30.3744 31.4719 30.3711C31.4741 30.3623 31.4785 30.3535 31.4829 30.3459C31.4873 30.3382 31.4917 30.3294 31.4971 30.3218C31.5015 30.3141 31.5081 30.3064 31.5136 30.2987C31.5191 30.2922 31.5234 30.2856 31.53 30.2801C31.5355 30.2735 31.5421 30.2681 31.5486 30.2626C31.5497 30.2615 31.5508 30.2604 31.5519 30.2593C31.5552 30.2571 31.5585 30.2538 31.5618 30.2516C31.5695 30.2461 31.5771 30.2407 31.5848 30.2352C31.5925 30.2308 31.6001 30.2264 31.6089 30.222C31.6188 30.2176 31.6286 30.2133 31.6385 30.21C31.6418 30.2078 31.644 30.2067 31.6473 30.2056C31.6549 30.2034 31.6615 30.2012 31.6692 30.2012C31.6988 30.1935 31.7284 30.1902 31.7569 30.1924C31.7941 30.1957 31.8303 30.2056 31.8632 30.222C31.896 30.2396 31.9256 30.2626 31.9497 30.2911C31.9738 30.3196 31.9914 30.3513 32.0034 30.3864L33.1234 33.8438C33.1377 33.8866 33.1409 33.9315 33.1344 33.9753ZM35.6472 33.6498C35.7217 33.6498 35.794 33.6794 35.8466 33.732C35.8992 33.7846 35.9299 33.857 35.9299 33.9315C35.9299 34.006 35.8992 34.0783 35.8466 34.1309C35.794 34.1835 35.7217 34.2131 35.6472 34.2131H33.8543C33.7787 34.2131 33.7075 34.1835 33.6538 34.1309C33.6012 34.0783 33.5716 34.006 33.5716 33.9315C33.5716 33.857 33.6012 33.7846 33.6538 33.732C33.7075 33.6794 33.7787 33.6498 33.8543 33.6498H34.468V30.7557H33.8543C33.7787 30.7557 33.7075 30.7261 33.6538 30.6735C33.6012 30.6209 33.5716 30.5486 33.5716 30.4741C33.5716 30.3996 33.6012 30.3272 33.6538 30.2746C33.7075 30.222 33.7787 30.1913 33.8543 30.1913H35.6472C35.7217 30.1913 35.794 30.222 35.8466 30.2746C35.8992 30.3272 35.9299 30.3996 35.9299 30.4741C35.9299 30.5486 35.8992 30.6209 35.8466 30.6735C35.794 30.7261 35.7217 30.7557 35.6472 30.7557H35.0324V33.6498H35.6472Z" fill="#000C3A"/>
<path d="M32.0898 32.487H31.3457L31.7271 31.3682L32.0898 32.487Z" fill="#000C3A"/>
<path d="M50.9261 34.7666C51.6702 35.5885 51.8389 38.3161 51.4006 39.6157C51.1891 40.2437 50.9129 40.7313 50.5557 41.1149C49.9091 41.8064 48.6105 42.8902 47.1245 42.4748H47.1234L44.2259 39.5851C44.192 39.55 44.1503 39.5259 44.1032 39.5127L42.1843 38.9736C42.1865 38.9462 42.1876 38.9177 42.1876 38.8892C42.1876 38.2503 41.6945 37.7298 41.0918 37.7298C40.489 37.7298 39.997 38.2503 39.997 38.8892C39.997 39.5281 40.489 40.0497 41.0918 40.0497C41.4786 40.0497 41.8205 39.8349 42.0145 39.5116L43.8797 40.0366L46.7366 42.8825L46.7388 42.8858C46.7388 42.8858 46.7421 42.8902 46.7442 42.8923C47.1026 43.8183 47.2988 46.4363 46.0856 47.6724C45.2572 48.5152 43.9246 48.5842 42.1164 47.8796L41.312 46.0933L41.3734 43.174C41.8413 43.0425 42.1876 42.5899 42.1876 42.054C42.1876 41.4151 41.6945 40.8946 41.0918 40.8946C40.489 40.8946 39.997 41.4151 39.997 42.054C39.997 42.5888 40.3422 43.0414 40.809 43.174L40.7466 46.147C40.7466 46.1887 40.7542 46.2303 40.7718 46.2687L41.6101 48.1316C41.4819 48.708 40.5997 52.1161 37.6255 52.3243C37.4973 52.3331 37.3735 52.3364 37.2518 52.3342L38.5351 48.4856C38.5526 48.4308 38.5526 48.3705 38.5351 48.3157L37.2705 44.1022C37.5532 43.8918 37.7384 43.5444 37.7384 43.1521C37.7384 42.5132 37.2453 41.9927 36.6425 41.9927C36.0398 41.9927 35.5467 42.5132 35.5467 43.1521C35.5467 43.7909 36.0398 44.3126 36.6425 44.3126C36.6765 44.3126 36.7105 44.3104 36.7434 44.3082L37.9674 48.3935L36.6864 52.2498C36.682 52.263 36.6798 52.2761 36.6776 52.2893C35.1818 52.0559 34.1933 50.9348 33.6585 48.8823C33.3933 47.8379 33.2673 46.7618 33.2848 45.6835L33.3593 38.3665H37.2891C37.7121 38.3665 38.1176 38.1977 38.4168 37.8986C38.7159 37.5994 38.8836 37.1939 38.8836 36.7709V35.9688H43.9684L47.4412 38.5681C47.4138 38.67 47.3985 38.7785 47.3985 38.8892C47.3985 39.5292 47.8894 40.0497 48.4922 40.0497C49.0949 40.0497 49.588 39.5292 49.588 38.8892C49.588 38.2492 49.0916 37.7298 48.4922 37.7298C48.1919 37.7298 47.9179 37.8602 47.7207 38.0695L44.2314 35.4592C44.1821 35.423 44.1229 35.4044 44.0627 35.4044H38.8836V33.5447H45.1267C45.1607 33.5447 45.1925 33.5382 45.2243 33.5272L49.3546 31.9941C49.5508 32.3064 49.8861 32.5124 50.2653 32.5124C50.868 32.5124 51.3611 31.9919 51.3611 31.3519C51.3611 30.712 50.8647 30.1925 50.2653 30.1925C49.6658 30.1925 49.1716 30.7131 49.1716 31.3519C49.1716 31.3881 49.1727 31.4232 49.176 31.4582L45.0763 32.9804H38.8836V30.9958H44.5887C44.7684 31.3749 45.1377 31.6347 45.564 31.6347C46.1667 31.6347 46.6599 31.1141 46.6599 30.4742C46.6599 29.8342 46.1634 29.3148 45.564 29.3148C44.9646 29.3148 44.4933 29.8123 44.4725 30.4314H38.8836V28.7339H42.6052C42.6446 28.7339 42.683 28.7263 42.7191 28.7098L46.6456 27.0014C46.8473 27.2765 47.1607 27.4529 47.5124 27.4529C48.1152 27.4529 48.6083 26.9324 48.6083 26.2924C48.6083 25.6524 48.1152 25.133 47.5124 25.133C46.9097 25.133 46.4166 25.6535 46.4166 26.2924C46.4166 26.356 46.421 26.4184 46.4319 26.4798L42.5471 28.1696H38.8836V27.6052C38.8836 27.1822 38.7148 26.7768 38.4157 26.4787C38.1176 26.1795 37.7121 26.0108 37.2891 26.0108H33.4864L33.5654 18.2258C33.5654 18.2204 33.5654 18.2149 33.5654 18.2094C33.5686 18.068 33.5851 17.8916 33.6026 17.6911C33.6727 16.9042 33.7834 15.6681 33.3232 14.5887C33.9555 13.8687 34.8048 13.4183 35.8524 13.2551C39.6529 12.6589 41.2134 16.81 41.5268 17.7952L38.2272 19.8203C38.0321 19.6274 37.7702 19.5102 37.4842 19.5102C36.8814 19.5102 36.3883 20.0307 36.3883 20.6707C36.3883 21.3107 36.8814 21.8312 37.4842 21.8312C38.0869 21.8312 38.58 21.3107 38.58 20.6707C38.58 20.5414 38.5603 20.4175 38.5231 20.3014L41.9772 18.1798C42.8846 17.7732 44.5613 17.8543 46.0078 18.7968C46.9755 19.4291 48.1218 20.64 48.1689 22.8547L44.6314 24.3308L41.3077 23.8136C41.3087 23.7906 41.3098 23.7676 41.3098 23.7445C41.3098 23.1046 40.8167 22.584 40.2151 22.584C39.6134 22.584 39.1192 23.1046 39.1192 23.7445C39.1192 24.3845 39.6123 24.9039 40.2151 24.9039C40.6052 24.9039 40.9482 24.6859 41.1422 24.3593L44.6248 24.9007C44.6763 24.9083 44.7289 24.9018 44.7761 24.882L48.49 23.3325C49.2976 23.475 51.634 24.23 52.7266 28.197C52.7781 28.3438 53.9627 31.8144 50.9743 34.3458C50.9633 34.3513 50.9546 34.359 50.9447 34.3677C50.8899 34.4181 50.8559 34.4883 50.8527 34.5628C50.8527 34.5759 50.8527 34.588 50.8548 34.6011C50.8559 34.6252 50.8603 34.6494 50.868 34.6724C50.8811 34.7074 50.8998 34.7392 50.925 34.7666H50.9261Z" fill="#000C3A"/>
<path d="M33.4914 50.171C32.3101 51.2143 30.8504 51.6778 29.1529 51.5496C29.1321 51.5485 29.1112 51.5463 29.0904 51.5441L29.5342 45.4314C30.0515 45.3405 30.4482 44.8627 30.4482 44.2885C30.4482 43.6485 29.9518 43.128 29.3523 43.128C28.7529 43.128 28.2598 43.6485 28.2598 44.2885C28.2598 44.786 28.5556 45.2112 28.9721 45.3756L28.5315 51.463C25.954 50.9392 24.6083 48.5119 24.365 48.0308L25.2965 44.0759L27.5431 41.3626C27.6757 41.4239 27.8225 41.4579 27.9759 41.4579C28.5787 41.4579 29.0696 40.9374 29.0696 40.2974C29.0696 39.6574 28.5787 39.138 27.9759 39.138C27.3732 39.138 26.8801 39.6585 26.8801 40.2974C26.8801 40.5626 26.9655 40.808 27.108 41.0031L24.8165 43.7668C24.7902 43.8008 24.7716 43.8403 24.7617 43.8819L23.8303 47.8379C21.6572 48.4428 20.1416 48.2785 19.3252 47.3547C18.2019 46.0824 18.6753 43.6704 19.0643 42.7663C19.0698 42.7521 19.0797 42.74 19.0917 42.7313C19.0928 42.7302 19.0939 42.7291 19.0961 42.728C19.1005 42.7247 19.106 42.7214 19.1115 42.7192C19.118 42.717 19.1257 42.7148 19.1334 42.7137C19.1893 42.7094 19.243 42.6863 19.2868 42.6502L22.7081 39.7834C22.8692 39.8821 23.0555 39.939 23.2549 39.939C23.8588 39.939 24.3508 39.4185 24.3508 38.7785C24.3508 38.1386 23.8577 37.6191 23.2549 37.6191C22.6522 37.6191 22.1591 38.1397 22.1591 38.7785C22.1591 38.9966 22.2171 39.2015 22.3169 39.3758L18.981 42.168C18.9383 42.179 18.8967 42.1943 18.8572 42.2151C17.3548 42.6546 16.0441 41.5499 15.3954 40.8486C15.0403 40.465 14.7663 39.973 14.5559 39.3451C14.1209 38.0421 14.305 35.3156 15.0524 34.4981C15.0546 34.4949 15.0578 34.4927 15.06 34.4894C15.0622 34.4872 15.0633 34.485 15.0644 34.4817H15.0655C15.0655 34.4817 15.0699 34.4762 15.071 34.474C15.0754 34.4696 15.0787 34.4653 15.0809 34.4609C15.0863 34.4543 15.0896 34.4488 15.0929 34.4423C15.1006 34.4302 15.1061 34.417 15.1115 34.4039C15.1247 34.3688 15.1302 34.3316 15.1291 34.2943C15.128 34.2571 15.1192 34.2198 15.1028 34.1858C15.0874 34.1518 15.0655 34.1212 15.0381 34.096C15.0228 34.0817 15.0063 34.0697 14.9888 34.0598C12.0365 31.5196 13.2277 28.0644 13.2869 27.9011C14.4003 23.9276 16.7685 23.2043 17.5586 23.075L22.3103 24.3703C22.3432 24.3791 22.3782 24.3823 22.4122 24.3791L25.6647 24.0591C25.8182 24.504 26.2225 24.8218 26.6938 24.8218C27.2976 24.8218 27.7896 24.3012 27.7896 23.6624C27.7896 23.0235 27.2965 22.503 26.6938 22.503C26.1436 22.503 25.6845 22.9369 25.6099 23.498L22.4089 23.8125L17.8578 22.572C17.9246 20.377 19.0698 19.177 20.0353 18.5535C21.4862 17.6166 23.164 17.5442 24.0955 17.965L27.0072 18.9634L29.188 21.2197C29.0532 21.4115 28.9743 21.6493 28.9743 21.9068C28.9743 22.5468 29.4674 23.0673 30.0701 23.0673C30.6729 23.0673 31.166 22.5468 31.166 21.9068C31.166 21.2668 30.6729 20.7463 30.0701 20.7463C29.909 20.7463 29.7545 20.7836 29.6164 20.8515L27.3666 18.5228C27.3359 18.49 27.2976 18.4658 27.257 18.4516L24.5393 17.5223C24.8933 16.4517 26.479 12.4562 30.2159 13.0622C33.4016 13.5794 33.1747 16.1218 33.0399 17.6396C33.0202 17.8533 33.0038 18.0417 33.0005 18.1941V18.2017L32.9205 26.0108H28.9249C28.5019 26.0108 28.0965 26.1795 27.7984 26.4787C27.4992 26.7768 27.3305 27.1822 27.3305 27.6052V28.2814L23.7875 28.2047L20.0221 26.585C20.0462 26.4919 20.0583 26.3932 20.0583 26.2924C20.0583 25.6535 19.5619 25.133 18.9624 25.133C18.363 25.133 17.8687 25.6535 17.8687 26.2924C17.8687 26.9313 18.3597 27.4529 18.9624 27.4529C19.2769 27.4529 19.5608 27.3115 19.7602 27.0847L23.6155 28.7449C23.6483 28.7592 23.6845 28.7668 23.7207 28.7668L27.3305 28.8468V30.5399L22.0188 30.3054C21.9421 29.7465 21.4873 29.3148 20.9383 29.3148C20.3355 29.3148 19.8424 29.8353 19.8424 30.4742C19.8424 31.1131 20.3355 31.6347 20.9383 31.6347C21.4106 31.6347 21.815 31.3147 21.9662 30.8676L27.3305 31.1043V33.0911L21.1728 32.9585L17.9301 31.6741C17.9586 31.5722 17.9739 31.4637 17.9739 31.352C17.9739 30.7131 17.4808 30.1925 16.8781 30.1925C16.2754 30.1925 15.7822 30.7131 15.7822 31.352C15.7822 31.9908 16.2754 32.5125 16.8781 32.5125C17.1794 32.5125 17.4545 32.3821 17.6529 32.1716L21.0128 33.5009C21.0435 33.513 21.0763 33.5195 21.1103 33.5206L27.3305 33.6576V35.5195L22.1415 35.4066C22.0911 35.4044 22.0407 35.4176 21.9958 35.4428L18.9328 37.1731C18.7312 36.9101 18.4243 36.7413 18.0813 36.7413C17.4786 36.7413 16.9855 37.2619 16.9855 37.9019C16.9855 38.5418 17.4786 39.0613 18.0813 39.0613C18.6841 39.0613 19.1772 38.5407 19.1772 37.9019C19.1772 37.8306 19.1706 37.7605 19.1586 37.6925L22.2062 35.9721L27.3305 36.0849V36.772C27.3305 37.195 27.4992 37.6005 27.7984 37.8986C28.0965 38.1977 28.5019 38.3665 28.9249 38.3665H32.7945L32.7199 45.678C32.7013 46.8056 32.8328 47.9322 33.1101 49.0258C33.2185 49.4412 33.3457 49.8225 33.4914 50.171Z" fill="#000C3A"/>
</svg>
