<svg width="65" height="65" viewBox="0 0 65 65" fill="none" xmlns="http://www.w3.org/2000/svg">
<rect width="65" height="65" rx="32.5" fill="#D9DDFF"/>
<path d="M52.5 24.2257C52.5 18.8547 48.1242 14.5 42.7273 14.5C37.3303 14.5 32.9545 18.8547 32.9545 24.2257C32.9545 25.6596 33.2667 27.0212 33.8265 28.2471C32.4008 27.7782 30.9227 27.5233 29.4386 27.4758C29.4386 27.4856 29.4386 27.4954 29.4379 27.5052H29.4697V29.5408H28.3333V27.5052H28.3545C28.3538 27.4947 28.3538 27.4834 28.3545 27.4728C25.8992 27.5633 23.4576 28.2267 21.2364 29.4519C21.2485 29.4707 21.2591 29.4911 21.2674 29.5114L21.3227 29.479L22.3076 31.1377L21.3288 31.7137L20.3439 30.055L20.3826 30.0324C20.3667 30.0188 20.353 30.0037 20.3402 29.9879C18.3758 31.2432 16.6174 32.9629 15.2212 35.1387C15.2598 35.1568 15.2924 35.1817 15.3189 35.2104L15.3265 35.1983L16.8038 36.0653L16.2265 37.0394L14.7492 36.1724L14.7576 36.1588C14.7174 36.14 14.6833 36.1143 14.6545 36.0842C13.8038 37.6026 13.1189 39.3185 12.6477 41.2312C12.5447 41.6474 12.5 42.0832 12.5 42.5114V43.1492H14.6591V44.2801H12.5V47.2581H45.1136V44.1293H43.0682V42.9984H45.1136V42.5167C45.1136 42.0854 45.0674 41.6444 44.9644 41.2252C44.4917 39.3102 43.8212 37.6018 42.9977 36.091C42.9795 36.106 42.9598 36.1196 42.9379 36.1309L42.9402 36.1347L41.4629 37.0017L40.8856 36.0276L42.3629 35.1606L42.3682 35.1689C42.3886 35.1531 42.4121 35.1395 42.4379 35.1282C42.1674 34.6954 41.8826 34.2815 41.5856 33.8857C41.9598 33.9287 42.3409 33.9513 42.7273 33.9513C48.1242 33.9513 52.5 29.5966 52.5 24.2257ZM30.7576 42.8476C30.7576 43.9303 29.8758 44.8078 28.7879 44.8078C27.7 44.8078 26.8182 43.9303 26.8182 42.8476C26.8182 41.765 27.7 40.8874 28.7879 40.8874C29.1091 40.8874 29.4121 40.9643 29.6803 41.1008C29.6826 41.0993 29.6848 41.0985 29.6871 41.0978L29.6765 41.0865L35.1227 36.1038C33.0394 34.5658 30.7386 33.8412 28.5417 33.8405C26.7523 33.8405 25.0311 34.3215 23.5439 35.2473C22.0576 36.1739 20.8008 37.5438 19.9424 39.3532C19.3712 40.5595 18.9773 41.9625 18.822 43.5609L17.3144 43.4161C17.5697 40.7796 18.4258 38.5525 19.7008 36.8049C20.975 35.0558 22.6659 33.7915 24.5568 33.0647C25.8174 32.5799 27.1667 32.3326 28.5417 32.3326C31.3515 32.3319 34.2689 33.3655 36.778 35.4878L37.4318 36.0397L30.7023 42.1962L30.6886 42.1812C30.678 42.1962 30.6659 42.2098 30.653 42.2226C30.7197 42.4194 30.7576 42.629 30.7576 42.8476ZM42.2273 28.7568C40.3947 28.8646 39.4167 28.0307 39.247 26.3042L40.3167 26.2786C40.3727 27.1305 40.722 27.5339 41.3099 27.5716L43.3 27.659C44.0447 27.6922 44.7629 27.2972 45.0712 26.6224C45.3098 26.1022 45.1939 25.6415 44.6629 25.251C44.3015 24.9841 43.8538 24.8597 43.4038 24.8597H41.947C41.2439 24.8597 40.55 24.6245 40.0303 24.1525C38.4106 22.6831 39.3129 20.0097 42.125 19.9667V18.5983C42.5068 18.6066 42.8894 18.6149 43.2712 18.624C43.2795 19.0545 43.2886 19.4857 43.297 19.9162C45.4447 19.9795 46.0568 20.9679 46.2258 22.2232L45.1561 22.2737C45.0826 21.516 44.4424 20.9385 43.6773 20.94L42.1697 20.9438C41.6091 20.9544 41.0591 21.17 40.6833 21.5839C40.3174 21.9865 40.2402 22.4215 40.4409 22.8889C40.6894 23.4702 41.2977 23.817 41.9326 23.8019C42.3735 23.7914 42.9311 23.7778 43.4008 23.7673C44.6561 23.7371 45.8174 24.5408 46.1258 25.7524C46.1591 25.8805 46.1818 26.0102 46.1947 26.1399C46.3386 27.5512 45.1636 28.7568 43.7379 28.7568H43.2205L43.2462 29.853H42.303L42.2273 28.7568Z" fill="#000C3A"/>
<path d="M12.5371 50.4996H45.1507V48.9917H12.5371" fill="#000C3A"/>
</svg>
