<svg width="29" height="28" viewBox="0 0 29 28" fill="none" xmlns="http://www.w3.org/2000/svg">
<rect x="1" y="0.5" width="27" height="27" rx="13.5" stroke="#002175"/>
<path fill-rule="evenodd" clip-rule="evenodd" d="M9.44546 12.6666C8.66325 12.6666 8.5 12.8202 8.5 13.5555V14.8889C8.5 15.6243 8.66325 15.7778 9.44546 15.7778H11.3364V21.1111C11.3364 21.8465 11.4996 22 12.2818 22H14.1727C14.955 22 15.1182 21.8465 15.1182 21.1111V15.7778H17.2414C17.8346 15.7778 17.9875 15.6694 18.1505 15.1331L18.5557 13.7998C18.8348 12.8811 18.6628 12.6666 17.6466 12.6666H15.1182V10.4444C15.1182 9.95353 15.5414 9.55555 16.0636 9.55555H18.7546C19.5367 9.55555 19.7 9.40207 19.7 8.66666V6.88889C19.7 6.15348 19.5367 6 18.7546 6H16.0636C13.4528 6 11.3364 7.98985 11.3364 10.4444V12.6666H9.44546Z" fill="#002175"/>
</svg>
