<svg width="29" height="28" viewBox="0 0 29 28" fill="none" xmlns="http://www.w3.org/2000/svg">
<rect x="1" y="0.5" width="27" height="27" rx="13.5" stroke="#002175"/>
<path fill-rule="evenodd" clip-rule="evenodd" d="M6.5 14C6.5 10.2288 6.5 8.34315 7.67157 7.17157C8.84315 6 10.7288 6 14.5 6C18.2712 6 20.1568 6 21.3285 7.17157C22.5 8.34315 22.5 10.2288 22.5 14C22.5 17.7712 22.5 19.6568 21.3285 20.8285C20.1568 22 18.2712 22 14.5 22C10.7288 22 8.84315 22 7.67157 20.8285C6.5 19.6568 6.5 17.7712 6.5 14ZM14.5 17.7895C16.5929 17.7895 18.2895 16.0929 18.2895 14C18.2895 11.9071 16.5929 10.2105 14.5 10.2105C12.4071 10.2105 10.7105 11.9071 10.7105 14C10.7105 16.0929 12.4071 17.7895 14.5 17.7895ZM19.5526 10.6316C20.0177 10.6316 20.3947 10.2546 20.3947 9.78947C20.3947 9.32439 20.0177 8.94737 19.5526 8.94737C19.0876 8.94737 18.7105 9.32439 18.7105 9.78947C18.7105 10.2546 19.0876 10.6316 19.5526 10.6316Z" fill="#002175"/>
</svg>
