<svg width="29" height="28" viewBox="0 0 29 28" fill="none" xmlns="http://www.w3.org/2000/svg">
<rect x="1" y="0.5" width="27" height="27" rx="13.5" stroke="#002175"/>
<path d="M8.49999 12H8.09999C7.34575 12 6.96863 12 6.73431 12.2343C6.5 12.4686 6.5 12.8457 6.5 13.6V20.3999C6.5 21.1542 6.5 21.5313 6.73431 21.7656C6.96863 21.9999 7.34575 21.9999 8.09999 21.9999H8.49999C9.25423 21.9999 9.63135 21.9999 9.86567 21.7656C10.1 21.5313 10.1 21.1542 10.1 20.3999V13.6C10.1 12.8457 10.1 12.4686 9.86567 12.2343C9.63135 12 9.25423 12 8.49999 12Z" fill="#002175"/>
<path d="M10.1 7.79999C10.1 8.7941 9.2941 9.59998 8.29999 9.59998C7.30588 9.59998 6.5 8.7941 6.5 7.79999C6.5 6.80588 7.30588 6 8.29999 6C9.2941 6 10.1 6.80588 10.1 7.79999Z" fill="#002175"/>
<path d="M14.7608 12H14.1C13.3458 12 12.9686 12 12.7343 12.2343C12.5 12.4686 12.5 12.8457 12.5 13.6V20.3999C12.5 21.1542 12.5 21.5313 12.7343 21.7656C12.9686 21.9999 13.3458 21.9999 14.1 21.9999H14.5C15.2542 21.9999 15.6313 21.9999 15.8657 21.7656C16.1 21.5313 16.1 21.1542 16.1 20.3999L16.1001 17.6C16.1001 16.2746 16.5225 15.2 17.7703 15.2C18.3941 15.2 18.9 15.7373 18.9 16.4V20C18.9 20.7542 18.9 21.1314 19.1343 21.3657C19.3685 21.6 19.7457 21.6 20.5 21.6H20.8989C21.653 21.6 22.03 21.6 22.2644 21.3658C22.4987 21.1315 22.4987 20.7545 22.4989 20.0004L22.5 15.6001C22.5 13.612 20.6091 12.0002 18.7374 12.0002C17.6719 12.0002 16.7213 12.5224 16.1001 13.3392C16.1 12.8351 16.1 12.5831 15.9905 12.396C15.9212 12.2775 15.8225 12.1788 15.704 12.1095C15.5169 12 15.2649 12 14.7608 12Z" fill="#002175"/>
</svg>
