<svg width="65" height="65" viewBox="0 0 65 65" fill="none" xmlns="http://www.w3.org/2000/svg">
<rect width="65" height="65" rx="32.5" fill="#D9DDFF"/>
<path d="M44.7053 17.5C41.917 17.5 39.6562 19.7237 39.6562 22.4675C39.6562 25.2114 41.917 27.4351 44.7053 27.4351C47.4935 27.4351 49.7543 25.2114 49.7543 22.4675C49.7543 19.7237 47.4935 17.5 44.7053 17.5ZM45.1464 25.2435V26.1201H44.4112V25.2435C43.4288 24.9386 43.1259 24.5851 43.1366 23.539H43.921C44.3131 25.974 47.1562 23.1006 44.3131 22.7597C42.6464 22.3701 42.7445 20.1299 44.3131 19.6429V18.8149H45.0484V19.6429C46.0866 19.9896 46.2484 20.4318 46.3229 21.3474H45.6366C44.9504 19.0097 42.5974 21.4935 44.8033 22.1266C47.0092 22.5162 46.6661 24.8052 45.1464 25.2435Z" fill="#000C3A"/>
<path d="M25.6276 26.495L20.809 17.8398C20.5855 17.4375 20.0031 17.4375 19.7796 17.8398L14.961 26.495C14.7443 26.8846 15.0276 27.3619 15.4757 27.3619H25.1129C25.561 27.3619 25.8443 26.8846 25.6276 26.495ZM20.9316 26.7531H19.7551V25.5843H20.9316V26.7531ZM20.9316 24.6102H19.7551V20.2271H20.9316V24.6102Z" fill="#000C3A"/>
<path d="M45.6373 31.7208V32.6949H47.2549C47.6343 32.6949 47.9412 32.9997 47.9412 33.3767C47.9412 33.7536 47.6343 34.0585 47.2549 34.0585H34.1176V44.7728H42.402C43.1598 44.7728 43.7745 45.3835 43.7745 46.1364C43.7745 46.8893 43.1598 47.5 42.402 47.5H22.402C21.6441 47.5 21.0294 46.8893 21.0294 46.1364C21.0294 45.7604 21.1833 45.4195 21.4314 45.1721C21.6804 44.9257 22.0235 44.7728 22.402 44.7728H30.6863V34.0585H17.549C17.1696 34.0585 16.8627 33.7536 16.8627 33.3767C16.8627 33.1877 16.9392 33.0182 17.0637 32.8945C17.1882 32.7708 17.3588 32.6949 17.549 32.6949H19.5098V31.7208C15.5882 31.526 12.7941 30.1137 12.5 28.0195H28.0882C27.598 29.9189 25.6373 31.3799 21.2255 31.7208V32.6949H30.6863V29.2858C30.6863 28.8017 31.0814 28.4091 31.5686 28.4091H33.2353C33.7225 28.4091 34.1176 28.8017 34.1176 29.2858V32.6949H43.9216V31.7208C40 31.526 37.2059 30.1137 36.9118 28.0195H52.5C52.0098 29.9189 50.049 31.3799 45.6373 31.7208Z" fill="#000C3A"/>
</svg>
