<svg width="65" height="65" viewBox="0 0 65 65" fill="none" xmlns="http://www.w3.org/2000/svg">
<rect width="65" height="65" rx="32.5" fill="#D9DDFF"/>
<path d="M40.1007 14.9275C39.694 16.2495 39.2533 17.1478 38.6092 17.9105C37.8973 18.741 37.4397 19.097 37.016 19.097C36.5923 19.097 36.3211 18.8258 35.8465 17.9783C35.0499 16.5037 33.999 16.0631 32.9651 16.7749C31.999 17.4529 31.5584 19.1139 32.1516 19.8936C32.4906 20.3343 32.9312 20.5377 33.8295 20.6224C34.8126 20.7241 35.1007 20.8089 35.3719 21.1478C35.5753 21.3851 35.5923 21.4529 35.5414 21.8936C35.5245 22.1817 35.4228 22.5377 35.2702 22.7919C35.1516 23.0123 34.355 23.9445 33.4906 24.8428C32.6431 25.7411 31.9312 26.5038 31.9312 26.5377C31.9312 26.6563 33.2533 28.1818 33.999 28.9106C35.5245 30.4191 35.8465 30.3852 36.0838 28.7241C36.1855 27.9445 36.3889 27.4868 36.7957 27.0801C37.8804 26.0123 39.6601 26.0801 40.677 27.1987C41.2194 27.7919 41.4397 28.4021 41.4397 29.3004C41.4567 29.9106 41.4228 30.0801 41.2194 30.453C40.8634 31.114 40.4228 31.4699 39.355 31.9106C38.4397 32.2835 38.7618 33.0801 40.1346 33.8937C40.999 34.3852 43.0329 34.8428 44.1685 34.775L44.6601 34.7581L48.8295 28.8767C51.1177 25.6733 52.999 22.9784 52.999 22.9445C52.999 22.8936 42.5075 15.3512 40.5753 14.0461C40.4228 13.9275 40.4058 13.9783 40.1007 14.9275Z" fill="#000C3A"/>
<path d="M13.0169 28.1141L13.0339 35.6226L13.4237 35.7752C14.1525 36.0464 15.4746 36.2667 16.6271 36.3175C18.4068 36.3853 18.5763 36.2328 18.0508 34.9277C17.7966 34.3345 17.7797 34.1819 17.7797 33.4192C17.7797 32.6565 17.7966 32.5209 18.0169 32.0802C18.4237 31.2667 19.1356 30.9107 20.3559 30.9107C22.678 30.9277 23.661 32.4701 22.8644 34.8599C22.5763 35.7074 22.5932 35.9447 22.9322 36.2836C23.2203 36.5718 23.678 36.7413 24.1695 36.7413C24.322 36.7413 24.9831 36.6057 25.6441 36.4531C26.2881 36.3006 27.1186 36.1311 27.4746 36.0972L28.1017 36.0464L28.2034 35.3684C28.3898 33.9955 28.4915 32.504 28.4576 31.5718C28.4068 30.0294 28.1525 29.809 27.1864 30.4362C26.339 30.9785 25.1356 31.165 24.4576 30.8429C24.0169 30.6396 23.6271 30.2158 23.3898 29.6904C23.1186 29.0802 23.1186 27.5548 23.3729 26.826C23.9661 25.2497 24.9831 25.0463 27.2034 26.0633C27.661 26.2667 28.1186 26.4361 28.2034 26.4192C28.4915 26.3683 28.5932 25.9616 28.5932 24.7412C28.5763 23.4531 28.4237 22.3683 28.0678 21.3175L27.8475 20.6395L20.4237 20.6226H13L13.0169 28.1141Z" fill="#000C3A"/>
<path d="M19.9328 31.775C18.7464 32.0123 18.4074 33.114 19.0006 34.8089C19.3566 35.8259 19.3227 36.1987 18.8311 36.7411C18.3396 37.2835 17.9159 37.4021 16.6955 37.4021C15.543 37.3852 14.6786 37.2157 13.6277 36.7242L13.0176 36.436V44.0462V51.6564H20.5091H28.0006V51.3344C28.0006 51.1649 28.1193 50.2496 28.2549 49.3005C28.7294 46.0123 28.5769 45.5547 27.2549 46.3683C26.6616 46.7412 26.3227 46.8429 25.6616 46.8429C24.8481 46.8598 24.3227 46.6395 23.7294 46.0293C23.1532 45.453 23.0176 45.114 23.0176 44.3005C23.0176 43.0632 23.865 41.6564 24.8481 41.2835C25.4074 41.0632 26.1532 41.1649 26.8311 41.5208C28.2888 42.3174 28.6786 42.0632 28.6786 40.3174C28.6616 39.2496 28.543 38.3174 28.2718 37.5038C27.9837 36.6564 28.1023 36.6903 26.7803 36.9614C25.3227 37.2496 24.1871 37.436 23.6786 37.436C23.1532 37.436 22.4752 37.2326 22.1701 36.9614C21.5938 36.4699 21.5261 35.9614 21.9328 34.8936C22.5261 33.2665 22.1701 32.0462 20.9837 31.775C20.5261 31.6902 20.3735 31.6902 19.9328 31.775Z" fill="#000C3A"/>
<path d="M35.2549 31.9615C34.7973 32.0463 34.3397 32.4022 34.1193 32.8429C33.9837 33.0802 33.9329 33.3683 33.9159 33.9446C33.8651 34.9446 33.9837 35.1988 34.6787 35.7412C35.2549 36.1988 35.3227 36.3005 35.3227 36.6734C35.3227 36.9955 34.9329 37.3175 34.4244 37.4022C33.56 37.5209 30.8651 37.2666 29.5261 36.9277C29.1702 36.8429 28.8651 36.7751 28.8482 36.7921C28.8312 36.809 28.9329 37.1311 29.0346 37.5209C29.4583 38.9446 29.6109 40.8429 29.3905 41.8599C29.1532 42.9446 28.0346 43.3175 27.0176 42.6396C26.8312 42.5209 26.4414 42.3684 26.1363 42.2836C24.7465 41.9446 23.9668 42.5887 23.9668 44.1311C23.9668 44.826 24.1363 45.3853 24.4414 45.6565C24.899 46.0633 25.9498 45.9786 27.1024 45.4362C27.7973 45.1141 27.9837 45.0802 28.3905 45.2497C29.0854 45.5379 29.4075 46.3345 29.3905 47.7921C29.3905 48.7413 29.1702 50.3176 28.9329 51.0972C28.8651 51.3176 28.7973 51.5379 28.7973 51.5718C28.7973 51.6227 32.2041 51.6396 36.3736 51.6396H43.9499V43.8938C43.9499 39.6395 43.9329 36.148 43.899 36.148C43.8651 36.148 43.577 36.3175 43.238 36.5378C42.1702 37.2328 40.4922 37.826 39.5431 37.826C39.3397 37.826 38.7465 37.7412 38.238 37.6565C37.1024 37.4531 36.9837 37.3514 37.0515 36.6395C37.0854 36.3853 37.238 35.809 37.4075 35.3683C37.9329 34.0632 37.8482 32.9785 37.1702 32.3514C36.7634 32.0124 35.9329 31.8259 35.2549 31.9615Z" fill="#000C3A"/>
</svg>
